<svg id="svg" version="1.1" xmlns="http://www.w3.org/2000/svg" xmlns:xlink="http://www.w3.org/1999/xlink" width="400" height="400" viewBox="0, 0, 400,400"><g id="svgg"><path id="path1" d="M119.600 84.667 C 119.600 84.972,122.245 89.909,126.261 97.100 C 126.845 98.145,127.809 99.900,128.403 101.000 C 131.361 106.472,132.264 107.972,133.818 110.000 C 137.864 115.280,142.899 119.056,148.807 121.241 L 151.400 122.200 174.400 122.200 C 196.843 122.200,198.766 122.286,202.312 123.441 C 225.664 131.050,233.570 174.614,212.789 181.175 C 210.429 181.921,209.170 182.000,199.720 182.000 L 189.262 182.000 188.873 180.700 C 188.493 179.432,188.039 177.563,187.175 173.700 C 186.941 172.655,186.592 171.170,186.400 170.400 C 186.208 169.630,185.869 168.190,185.647 167.200 C 185.425 166.210,184.884 163.870,184.446 162.000 C 184.007 160.130,183.428 157.610,183.161 156.400 C 180.670 145.147,177.506 139.815,171.557 136.841 C 163.623 132.877,150.514 135.132,144.864 141.433 C 140.615 146.172,139.473 149.284,139.447 156.200 C 139.430 160.933,139.495 161.340,141.594 169.600 C 141.789 170.370,142.152 171.900,142.400 173.000 C 142.648 174.100,143.008 175.630,143.200 176.400 C 143.392 177.170,143.752 178.700,144.000 179.800 C 144.248 180.900,144.608 182.430,144.800 183.200 C 144.992 183.970,145.352 185.500,145.600 186.600 C 145.848 187.700,146.208 189.230,146.400 190.000 C 146.592 190.770,146.952 192.300,147.200 193.400 C 147.448 194.500,147.808 196.030,148.000 196.800 C 148.192 197.570,148.552 199.100,148.800 200.200 C 149.048 201.300,149.408 202.830,149.600 203.600 C 149.792 204.370,150.131 205.810,150.353 206.800 C 150.575 207.790,151.116 210.130,151.556 212.000 C 151.997 213.870,152.627 216.570,152.958 218.000 C 154.581 225.024,157.797 238.712,159.443 245.600 C 160.936 251.846,161.646 254.863,162.622 259.100 C 162.964 260.585,163.603 263.330,164.044 265.200 C 164.484 267.070,165.025 269.410,165.247 270.400 C 165.469 271.390,165.808 272.830,166.000 273.600 C 166.192 274.370,166.531 275.810,166.753 276.800 C 166.975 277.790,167.536 280.220,168.000 282.200 C 168.464 284.180,169.004 286.520,169.200 287.400 C 169.396 288.280,169.916 290.530,170.356 292.400 C 170.797 294.270,171.427 296.970,171.758 298.400 C 172.088 299.830,172.717 302.530,173.155 304.400 C 173.593 306.270,174.337 309.463,174.808 311.496 C 175.850 315.993,175.447 315.745,180.907 315.240 C 183.378 315.011,187.740 314.640,190.600 314.417 C 193.460 314.193,198.050 313.831,200.800 313.613 C 203.550 313.394,208.230 313.026,211.200 312.794 C 214.170 312.563,218.670 312.206,221.200 312.001 C 223.730 311.796,228.500 311.424,231.800 311.174 C 258.217 309.173,271.940 300.906,277.907 283.400 C 280.150 276.821,281.103 265.716,280.032 258.633 C 279.830 257.295,279.455 254.670,279.198 252.800 C 278.941 250.930,278.454 248.050,278.116 246.400 C 277.778 244.750,277.415 242.950,277.311 242.400 C 273.302 221.357,260.628 207.534,241.700 203.560 C 238.935 202.979,238.665 202.696,240.300 202.089 C 244.805 200.416,246.452 199.636,248.952 197.992 C 261.624 189.658,266.493 172.449,262.588 149.800 C 262.285 148.040,261.928 145.970,261.794 145.200 C 261.543 143.747,261.116 141.755,260.357 138.500 C 255.080 115.856,241.585 99.162,223.150 92.474 C 214.684 89.402,207.200 88.154,192.801 87.414 C 182.555 86.887,176.910 86.627,153.000 85.582 C 147.940 85.361,140.245 85.005,135.900 84.790 C 126.741 84.338,119.600 84.284,119.600 84.667 M218.579 220.589 C 227.298 223.267,232.793 230.211,235.519 242.000 C 236.870 247.844,237.000 249.001,237.000 255.200 C 237.000 270.857,232.031 275.287,213.000 276.594 C 204.169 277.200,204.426 277.259,203.962 274.524 C 203.658 272.737,203.481 271.747,202.400 265.800 C 202.180 264.590,201.820 262.610,201.600 261.400 C 201.380 260.190,201.011 258.165,200.780 256.900 C 200.549 255.635,200.174 253.520,199.946 252.200 C 199.718 250.880,199.381 248.990,199.198 248.000 C 198.573 244.632,198.065 241.805,197.653 239.400 C 196.771 234.250,195.616 227.645,195.029 224.400 C 194.691 222.530,194.411 220.685,194.407 220.300 C 194.394 219.028,214.269 219.265,218.579 220.589 " stroke="none" fill="darkgray" fill-rule="evenodd"></path></g></svg>