<svg id="svg" version="1.1" xmlns="http://www.w3.org/2000/svg" xmlns:xlink="http://www.w3.org/1999/xlink" width="400" height="400" viewBox="0, 0, 400,400"><g id="svgg"><path id="path0" d="M29.300 0.291 C 28.365 0.376,27.600 0.616,27.600 0.823 C 27.600 1.030,27.150 1.200,26.600 1.200 C 26.050 1.200,25.600 1.380,25.600 1.600 C 25.600 1.820,25.060 2.000,24.400 2.000 C 23.740 2.000,23.200 2.180,23.200 2.400 C 23.200 2.620,22.840 2.800,22.400 2.800 C 21.960 2.800,21.600 2.980,21.600 3.200 C 21.600 3.420,21.240 3.600,20.800 3.600 C 20.360 3.600,20.000 3.780,20.000 4.000 C 20.000 4.220,19.680 4.400,19.288 4.400 C 18.897 4.400,18.317 4.760,18.000 5.200 C 17.683 5.640,17.143 6.000,16.800 6.000 C 16.457 6.000,15.917 6.360,15.600 6.800 C 15.283 7.240,14.793 7.600,14.512 7.600 C 14.230 7.600,12.560 9.040,10.800 10.800 C 9.040 12.560,7.600 14.230,7.600 14.512 C 7.600 14.793,7.240 15.283,6.800 15.600 C 6.360 15.917,6.000 16.457,6.000 16.800 C 6.000 17.143,5.640 17.683,5.200 18.000 C 4.760 18.317,4.400 18.897,4.400 19.288 C 4.400 19.680,4.220 20.000,4.000 20.000 C 3.780 20.000,3.600 20.360,3.600 20.800 C 3.600 21.240,3.420 21.600,3.200 21.600 C 2.980 21.600,2.800 21.960,2.800 22.400 C 2.800 22.840,2.620 23.200,2.400 23.200 C 2.180 23.200,2.000 23.740,2.000 24.400 C 2.000 25.060,1.820 25.600,1.600 25.600 C 1.380 25.600,1.200 26.035,1.200 26.567 C 1.200 27.098,0.975 27.608,0.700 27.700 C -0.036 27.945,-0.036 372.055,0.700 372.300 C 0.975 372.392,1.200 372.902,1.200 373.433 C 1.200 373.965,1.380 374.400,1.600 374.400 C 1.820 374.400,2.000 374.940,2.000 375.600 C 2.000 376.260,2.180 376.800,2.400 376.800 C 2.620 376.800,2.800 377.160,2.800 377.600 C 2.800 378.040,2.980 378.400,3.200 378.400 C 3.420 378.400,3.600 378.760,3.600 379.200 C 3.600 379.640,3.780 380.000,4.000 380.000 C 4.220 380.000,4.400 380.320,4.400 380.712 C 4.400 381.103,4.760 381.683,5.200 382.000 C 5.640 382.317,6.000 382.857,6.000 383.200 C 6.000 383.543,6.360 384.083,6.800 384.400 C 7.240 384.717,7.600 385.218,7.600 385.513 C 7.600 386.211,13.789 392.400,14.487 392.400 C 14.782 392.400,15.283 392.760,15.600 393.200 C 15.917 393.640,16.457 394.000,16.800 394.000 C 17.143 394.000,17.683 394.360,18.000 394.800 C 18.317 395.240,18.897 395.600,19.288 395.600 C 19.680 395.600,20.000 395.780,20.000 396.000 C 20.000 396.220,20.360 396.400,20.800 396.400 C 21.240 396.400,21.600 396.580,21.600 396.800 C 21.600 397.020,21.960 397.200,22.400 397.200 C 22.840 397.200,23.200 397.380,23.200 397.600 C 23.200 397.820,23.740 398.000,24.400 398.000 C 25.060 398.000,25.600 398.180,25.600 398.400 C 25.600 398.620,26.035 398.800,26.567 398.800 C 27.098 398.800,27.608 399.025,27.700 399.300 C 27.945 400.036,372.055 400.036,372.300 399.300 C 372.392 399.025,372.902 398.800,373.433 398.800 C 373.965 398.800,374.400 398.620,374.400 398.400 C 374.400 398.180,374.940 398.000,375.600 398.000 C 376.260 398.000,376.800 397.820,376.800 397.600 C 376.800 397.380,377.160 397.200,377.600 397.200 C 378.040 397.200,378.400 397.020,378.400 396.800 C 378.400 396.580,378.760 396.400,379.200 396.400 C 379.640 396.400,380.000 396.220,380.000 396.000 C 380.000 395.780,380.320 395.600,380.712 395.600 C 381.103 395.600,381.683 395.240,382.000 394.800 C 382.317 394.360,382.857 394.000,383.200 394.000 C 383.543 394.000,384.083 393.640,384.400 393.200 C 384.717 392.760,385.207 392.400,385.488 392.400 C 385.770 392.400,387.440 390.960,389.200 389.200 C 390.960 387.440,392.400 385.770,392.400 385.488 C 392.400 385.207,392.760 384.717,393.200 384.400 C 393.640 384.083,394.000 383.543,394.000 383.200 C 394.000 382.857,394.360 382.317,394.800 382.000 C 395.240 381.683,395.600 381.103,395.600 380.712 C 395.600 380.320,395.780 380.000,396.000 380.000 C 396.220 380.000,396.400 379.640,396.400 379.200 C 396.400 378.760,396.580 378.400,396.800 378.400 C 397.020 378.400,397.200 378.040,397.200 377.600 C 397.200 377.160,397.380 376.800,397.600 376.800 C 397.820 376.800,398.000 376.260,398.000 375.600 C 398.000 374.940,398.180 374.400,398.400 374.400 C 398.620 374.400,398.800 373.965,398.800 373.433 C 398.800 372.902,399.025 372.392,399.300 372.300 C 400.036 372.055,400.036 27.945,399.300 27.700 C 399.025 27.608,398.800 27.098,398.800 26.567 C 398.800 26.035,398.620 25.600,398.400 25.600 C 398.180 25.600,398.000 25.060,398.000 24.400 C 398.000 23.740,397.820 23.200,397.600 23.200 C 397.380 23.200,397.200 22.840,397.200 22.400 C 397.200 21.960,397.020 21.600,396.800 21.600 C 396.580 21.600,396.400 21.240,396.400 20.800 C 396.400 20.360,396.220 20.000,396.000 20.000 C 395.780 20.000,395.600 19.680,395.600 19.288 C 395.600 18.897,395.240 18.317,394.800 18.000 C 394.360 17.683,394.000 17.143,394.000 16.800 C 394.000 16.457,393.640 15.917,393.200 15.600 C 392.760 15.283,392.400 14.782,392.400 14.487 C 392.400 13.789,386.211 7.600,385.513 7.600 C 385.218 7.600,384.717 7.240,384.400 6.800 C 384.083 6.360,383.543 6.000,383.200 6.000 C 382.857 6.000,382.317 5.640,382.000 5.200 C 381.683 4.760,381.103 4.400,380.712 4.400 C 380.320 4.400,380.000 4.220,380.000 4.000 C 380.000 3.780,379.640 3.600,379.200 3.600 C 378.760 3.600,378.400 3.420,378.400 3.200 C 378.400 2.980,378.040 2.800,377.600 2.800 C 377.160 2.800,376.800 2.620,376.800 2.400 C 376.800 2.180,376.260 2.000,375.600 2.000 C 374.940 2.000,374.400 1.820,374.400 1.600 C 374.400 1.380,373.965 1.200,373.433 1.200 C 372.902 1.200,372.392 0.975,372.300 0.700 C 372.143 0.229,34.399 -0.174,29.300 0.291 M135.900 84.790 C 140.245 85.005,147.940 85.361,153.000 85.582 C 176.910 86.627,182.555 86.887,192.801 87.414 C 207.200 88.154,214.684 89.402,223.150 92.474 C 241.585 99.162,255.080 115.856,260.357 138.500 C 261.116 141.755,261.543 143.747,261.794 145.200 C 261.928 145.970,262.285 148.040,262.588 149.800 C 266.493 172.449,261.624 189.658,248.952 197.992 C 246.452 199.636,244.805 200.416,240.300 202.089 C 238.665 202.696,238.935 202.979,241.700 203.560 C 260.628 207.534,273.302 221.357,277.311 242.400 C 277.415 242.950,277.778 244.750,278.116 246.400 C 278.454 248.050,278.941 250.930,279.198 252.800 C 279.455 254.670,279.830 257.295,280.032 258.633 C 281.103 265.716,280.150 276.821,277.907 283.400 C 271.940 300.906,258.217 309.173,231.800 311.174 C 228.500 311.424,223.730 311.796,221.200 312.001 C 218.670 312.206,214.170 312.563,211.200 312.794 C 208.230 313.026,203.550 313.394,200.800 313.613 C 198.050 313.831,193.460 314.193,190.600 314.417 C 187.740 314.640,183.378 315.011,180.907 315.240 C 175.447 315.745,175.850 315.993,174.808 311.496 C 174.337 309.463,173.593 306.270,173.155 304.400 C 172.717 302.530,172.088 299.830,171.758 298.400 C 171.427 296.970,170.797 294.270,170.356 292.400 C 169.916 290.530,169.396 288.280,169.200 287.400 C 169.004 286.520,168.464 284.180,168.000 282.200 C 167.536 280.220,166.975 277.790,166.753 276.800 C 166.531 275.810,166.192 274.370,166.000 273.600 C 165.808 272.830,165.469 271.390,165.247 270.400 C 165.025 269.410,164.484 267.070,164.044 265.200 C 163.603 263.330,162.964 260.585,162.622 259.100 C 161.646 254.863,160.936 251.846,159.443 245.600 C 157.797 238.712,154.581 225.024,152.958 218.000 C 152.627 216.570,151.997 213.870,151.556 212.000 C 151.116 210.130,150.575 207.790,150.353 206.800 C 150.131 205.810,149.792 204.370,149.600 203.600 C 149.408 202.830,149.048 201.300,148.800 200.200 C 148.552 199.100,148.192 197.570,148.000 196.800 C 147.808 196.030,147.448 194.500,147.200 193.400 C 146.952 192.300,146.592 190.770,146.400 190.000 C 146.208 189.230,145.848 187.700,145.600 186.600 C 145.352 185.500,144.992 183.970,144.800 183.200 C 144.608 182.430,144.248 180.900,144.000 179.800 C 143.752 178.700,143.392 177.170,143.200 176.400 C 143.008 175.630,142.648 174.100,142.400 173.000 C 142.152 171.900,141.789 170.370,141.594 169.600 C 139.495 161.340,139.430 160.933,139.447 156.200 C 139.465 151.366,139.830 149.572,141.521 146.000 C 146.014 136.506,161.460 131.796,171.557 136.841 C 177.506 139.815,180.670 145.147,183.161 156.400 C 183.428 157.610,184.007 160.130,184.446 162.000 C 184.884 163.870,185.425 166.210,185.647 167.200 C 185.869 168.190,186.208 169.630,186.400 170.400 C 186.592 171.170,186.941 172.655,187.175 173.700 C 188.039 177.563,188.493 179.432,188.873 180.700 L 189.262 182.000 199.720 182.000 C 209.170 182.000,210.429 181.921,212.789 181.175 C 233.570 174.614,225.664 131.050,202.312 123.441 C 198.766 122.286,196.843 122.200,174.400 122.200 L 151.400 122.200 148.807 121.241 C 142.899 119.056,137.864 115.280,133.818 110.000 C 132.264 107.972,131.361 106.472,128.403 101.000 C 127.809 99.900,126.845 98.145,126.261 97.100 C 122.245 89.909,119.600 84.972,119.600 84.667 C 119.600 84.284,126.741 84.338,135.900 84.790 M194.407 220.300 C 194.411 220.685,194.691 222.530,195.029 224.400 C 195.616 227.645,196.771 234.250,197.653 239.400 C 198.065 241.805,198.573 244.632,199.198 248.000 C 199.381 248.990,199.718 250.880,199.946 252.200 C 200.174 253.520,200.549 255.635,200.780 256.900 C 201.011 258.165,201.380 260.190,201.600 261.400 C 201.820 262.610,202.180 264.590,202.400 265.800 C 203.481 271.747,203.658 272.737,203.962 274.524 C 204.426 277.259,204.169 277.200,213.000 276.594 C 232.031 275.287,237.000 270.857,237.000 255.200 C 237.000 249.001,236.870 247.844,235.519 242.000 C 232.793 230.211,227.298 223.267,218.579 220.589 C 214.269 219.265,194.394 219.028,194.407 220.300 " stroke="none"></path><path id="path1" d="M119.600 84.667 C 119.600 84.972,122.245 89.909,126.261 97.100 C 126.845 98.145,127.809 99.900,128.403 101.000 C 131.361 106.472,132.264 107.972,133.818 110.000 C 137.864 115.280,142.899 119.056,148.807 121.241 L 151.400 122.200 174.400 122.200 C 196.843 122.200,198.766 122.286,202.312 123.441 C 225.664 131.050,233.570 174.614,212.789 181.175 C 210.429 181.921,209.170 182.000,199.720 182.000 L 189.262 182.000 188.873 180.700 C 188.493 179.432,188.039 177.563,187.175 173.700 C 186.941 172.655,186.592 171.170,186.400 170.400 C 186.208 169.630,185.869 168.190,185.647 167.200 C 185.425 166.210,184.884 163.870,184.446 162.000 C 184.007 160.130,183.428 157.610,183.161 156.400 C 180.670 145.147,177.506 139.815,171.557 136.841 C 163.623 132.877,150.514 135.132,144.864 141.433 C 140.615 146.172,139.473 149.284,139.447 156.200 C 139.430 160.933,139.495 161.340,141.594 169.600 C 141.789 170.370,142.152 171.900,142.400 173.000 C 142.648 174.100,143.008 175.630,143.200 176.400 C 143.392 177.170,143.752 178.700,144.000 179.800 C 144.248 180.900,144.608 182.430,144.800 183.200 C 144.992 183.970,145.352 185.500,145.600 186.600 C 145.848 187.700,146.208 189.230,146.400 190.000 C 146.592 190.770,146.952 192.300,147.200 193.400 C 147.448 194.500,147.808 196.030,148.000 196.800 C 148.192 197.570,148.552 199.100,148.800 200.200 C 149.048 201.300,149.408 202.830,149.600 203.600 C 149.792 204.370,150.131 205.810,150.353 206.800 C 150.575 207.790,151.116 210.130,151.556 212.000 C 151.997 213.870,152.627 216.570,152.958 218.000 C 154.581 225.024,157.797 238.712,159.443 245.600 C 160.936 251.846,161.646 254.863,162.622 259.100 C 162.964 260.585,163.603 263.330,164.044 265.200 C 164.484 267.070,165.025 269.410,165.247 270.400 C 165.469 271.390,165.808 272.830,166.000 273.600 C 166.192 274.370,166.531 275.810,166.753 276.800 C 166.975 277.790,167.536 280.220,168.000 282.200 C 168.464 284.180,169.004 286.520,169.200 287.400 C 169.396 288.280,169.916 290.530,170.356 292.400 C 170.797 294.270,171.427 296.970,171.758 298.400 C 172.088 299.830,172.717 302.530,173.155 304.400 C 173.593 306.270,174.337 309.463,174.808 311.496 C 175.850 315.993,175.447 315.745,180.907 315.240 C 183.378 315.011,187.740 314.640,190.600 314.417 C 193.460 314.193,198.050 313.831,200.800 313.613 C 203.550 313.394,208.230 313.026,211.200 312.794 C 214.170 312.563,218.670 312.206,221.200 312.001 C 223.730 311.796,228.500 311.424,231.800 311.174 C 258.217 309.173,271.940 300.906,277.907 283.400 C 280.150 276.821,281.103 265.716,280.032 258.633 C 279.830 257.295,279.455 254.670,279.198 252.800 C 278.941 250.930,278.454 248.050,278.116 246.400 C 277.778 244.750,277.415 242.950,277.311 242.400 C 273.302 221.357,260.628 207.534,241.700 203.560 C 238.935 202.979,238.665 202.696,240.300 202.089 C 244.805 200.416,246.452 199.636,248.952 197.992 C 261.624 189.658,266.493 172.449,262.588 149.800 C 262.285 148.040,261.928 145.970,261.794 145.200 C 261.543 143.747,261.116 141.755,260.357 138.500 C 255.080 115.856,241.585 99.162,223.150 92.474 C 214.684 89.402,207.200 88.154,192.801 87.414 C 182.555 86.887,176.910 86.627,153.000 85.582 C 147.940 85.361,140.245 85.005,135.900 84.790 C 126.741 84.338,119.600 84.284,119.600 84.667 M218.579 220.589 C 227.298 223.267,232.793 230.211,235.519 242.000 C 236.870 247.844,237.000 249.001,237.000 255.200 C 237.000 270.857,232.031 275.287,213.000 276.594 C 204.169 277.200,204.426 277.259,203.962 274.524 C 203.658 272.737,203.481 271.747,202.400 265.800 C 202.180 264.590,201.820 262.610,201.600 261.400 C 201.380 260.190,201.011 258.165,200.780 256.900 C 200.549 255.635,200.174 253.520,199.946 252.200 C 199.718 250.880,199.381 248.990,199.198 248.000 C 198.573 244.632,198.065 241.805,197.653 239.400 C 196.771 234.250,195.616 227.645,195.029 224.400 C 194.691 222.530,194.411 220.685,194.407 220.300 C 194.394 219.028,214.269 219.265,218.579 220.589 " stroke="none" fill="darkgray" fill-rule="evenodd"></path></g></svg>