<svg width="66" height="66" version="1.1" viewBox="0 0 66 66" xmlns="http://www.w3.org/2000/svg">
  <path d="m41.415 8.6609c1.5236-0.87971 3.4122 0.13311 3.5735 1.8317l0.01106 0.23577v34.942c0 6.6125-5.4694 11.992-12.192 11.992-3.3904 0-6.6547-1.4048-8.9562-3.8545-1.4959-1.5921-1.4169-4.0946 0.17629-5.5894 1.5135-1.4201 3.8492-1.4199 5.3616-0.05131l0.23171 0.22745c0.82349 0.87658 1.9554 1.3593 3.1867 1.3593 2.2566 0 4.1107-1.6761 4.2676-3.7924l0.01067-0.2912v-2.1004c-1.2401 0.6357-2.6065 0.99695-4.0858 0.99695-6.4699 0-11.76-5.143-11.992-11.553l-8e-3 -0.43895v-11.679c0-6.6124 5.3831-11.992 12-11.992 1.7451 0 3.3334 0.50239 4.7421 1.3663l0.41723 0.26987zm-8.4153 8.152c-2.1552 0-3.9261 1.676-4.076 3.7921l-0.01028 0.29118v11.679c0 2.2515 1.8331 4.0833 4.0863 4.0833 2.6773 0 3.9704-2.0411 4.0784-4.084l0.0074-0.2784 1.4e-4 -11.119c0-2.1323-1.2862-4.3642-4.086-4.3642z" fill="darkgray"></path>
</svg>
