
<svg xmlns="http://www.w3.org/2000/svg" version="1.1" id="svg2" xml:space="preserve" width="399.99847" height="400" viewBox="0 0 399.99847 400"><defs id="defs6"><clipPath clipPathUnits="userSpaceOnUse" id="clipPath20"><path d="M 0,595.276 H 841.89 V 0 H 0 Z" id="path18"></path></clipPath></defs><g id="g10" transform="matrix(1.3333333,0,0,-1.3333333,-522.35454,571.02814)"><g id="g354" transform="matrix(1.1482551,0,0,1.1482551,-58.081279,-63.493359)"><g id="g341"><g id="g22" transform="translate(593.8369,167.0051)"><path d="m 0,0 h -142.879 c -32.556,0 -59.192,26.638 -59.192,59.193 v 142.879 c 0,32.557 26.636,59.194 59.192,59.194 H 0 c 32.557,0 59.194,-26.637 59.194,-59.194 V 59.193 C 59.194,26.638 32.557,0 0,0" style="stroke:none" id="path24"></path></g><g id="g26" transform="translate(607.0439,364.5798)"><path d="m 0,0 c 0,-13.669 -11.081,-24.75 -24.751,-24.75 -13.67,0 -24.749,11.081 -24.749,24.75 0,13.668 11.079,24.751 24.749,24.751 C -11.081,24.751 0,13.668 0,0" style="stroke:none" id="path28"></path></g><g id="g30" transform="translate(517.1104,343.341)"><path d="m 0,0 c -36.371,0 -65.856,-29.485 -65.856,-65.856 0,-36.372 29.485,-65.856 65.856,-65.856 36.371,0 65.855,29.484 65.855,65.856 C 65.855,-29.485 36.371,0 0,0 m 0,-37.108 c 15.852,0 28.749,-12.896 28.749,-28.748 0,-15.852 -12.897,-28.748 -28.749,-28.748 -15.853,0 -28.748,12.896 -28.748,28.748 0,15.852 12.895,28.748 28.748,28.748" style="stroke:none" id="path32"></path></g><g id="g34" transform="translate(517.1104,343.341)"><path d="m 0,0 c -36.371,0 -65.856,-29.485 -65.856,-65.856 0,-36.372 29.485,-65.856 65.856,-65.856 36.371,0 65.855,29.484 65.855,65.856 C 65.855,-29.485 36.371,0 0,0 m 0,-37.108 c 15.852,0 28.749,-12.896 28.749,-28.748 0,-15.852 -12.897,-28.748 -28.749,-28.748 -15.853,0 -28.748,12.896 -28.748,28.748 0,15.852 12.895,28.748 28.748,28.748" style="fill:darkgray;fill-opacity:1;fill-rule:nonzero;stroke:none" id="path36"></path></g><g id="g38" transform="translate(607.0439,364.5798)"><path d="m 0,0 c 0,-13.669 -11.081,-24.75 -24.751,-24.75 -13.67,0 -24.749,11.081 -24.749,24.75 0,13.668 11.079,24.751 24.749,24.751 C -11.081,24.751 0,13.668 0,0" style="fill:darkgray;fill-opacity:1;fill-rule:nonzero;stroke:none" id="path40"></path></g></g></g></g></svg>
