<svg xmlns="http://www.w3.org/2000/svg" xmlns:xlink="http://www.w3.org/1999/xlink" viewBox="0 0 246 246"><defs><linearGradient id="a" x1="69.08" y1="-25.14" x2="176.92" y2="271.14" gradientUnits="userSpaceOnUse"><stop offset="0.1" stop-color="#ff0c28"></stop><stop offset="0.9" stop-color="#7200ff"></stop></linearGradient></defs><rect width="246" height="246"></rect><rect x="114" y="110" width="18" height="83" rx="2" style="fill:darkgray"></rect><rect x="88.67" y="82" width="18" height="83" rx="2" style="fill:darkgray"></rect><rect x="139.33" y="82" width="18" height="83" rx="2" style="fill:darkgray"></rect><rect x="63.33" y="57" width="18" height="83" rx="2" style="fill:darkgray"></rect><rect x="164.67" y="57" width="18" height="83" rx="2" style="fill:darkgray"></rect><rect x="190" y="72" width="18" height="43" rx="2" style="fill:darkgray"></rect><rect x="38" y="72" width="18" height="43" rx="2" style="fill:darkgray"></rect><g style="opacity:0.05"><path d="M130,110a2,2,0,0,1,2,2v79a2,2,0,0,1-2,2H116a2,2,0,0,1-2-2V112a2,2,0,0,1,2-2h14m0-1H116a3,3,0,0,0-3,3v79a3,3,0,0,0,3,3h14a3,3,0,0,0,3-3V112a3,3,0,0,0-3-3Z" style="fill:#7200ff"></path><path d="M104.67,82a2,2,0,0,1,2,2v79a2,2,0,0,1-2,2h-14a2,2,0,0,1-2-2V84a2,2,0,0,1,2-2h14m0-1h-14a3,3,0,0,0-3,3v79a3,3,0,0,0,3,3h14a3,3,0,0,0,3-3V84a3,3,0,0,0-3-3Z" style="fill:#7200ff"></path><path d="M155.33,82a2,2,0,0,1,2,2v79a2,2,0,0,1-2,2h-14a2,2,0,0,1-2-2V84a2,2,0,0,1,2-2h14m0-1h-14a3,3,0,0,0-3,3v79a3,3,0,0,0,3,3h14a3,3,0,0,0,3-3V84a3,3,0,0,0-3-3Z" style="fill:#7200ff"></path><path d="M79.33,57a2,2,0,0,1,2,2v79a2,2,0,0,1-2,2h-14a2,2,0,0,1-2-2V59a2,2,0,0,1,2-2h14m0-1h-14a3,3,0,0,0-3,3v79a3,3,0,0,0,3,3h14a3,3,0,0,0,3-3V59a3,3,0,0,0-3-3Z" style="fill:#7200ff"></path><path d="M180.67,57a2,2,0,0,1,2,2v79a2,2,0,0,1-2,2h-14a2,2,0,0,1-2-2V59a2,2,0,0,1,2-2h14m0-1h-14a3,3,0,0,0-3,3v79a3,3,0,0,0,3,3h14a3,3,0,0,0,3-3V59a3,3,0,0,0-3-3Z" style="fill:#7200ff"></path><path d="M206,72a2,2,0,0,1,2,2v39a2,2,0,0,1-2,2H192a2,2,0,0,1-2-2V74a2,2,0,0,1,2-2h14m0-1H192a3,3,0,0,0-3,3v39a3,3,0,0,0,3,3h14a3,3,0,0,0,3-3V74a3,3,0,0,0-3-3Z" style="fill:#7200ff"></path><path d="M54,72a2,2,0,0,1,2,2v39a2,2,0,0,1-2,2H40a2,2,0,0,1-2-2V74a2,2,0,0,1,2-2H54m0-1H40a3,3,0,0,0-3,3v39a3,3,0,0,0,3,3H54a3,3,0,0,0,3-3V74a3,3,0,0,0-3-3Z" style="fill:#7200ff"></path></g><g style="opacity:0.05"><path d="M130,110a2,2,0,0,1,2,2v79a2,2,0,0,1-2,2H116a2,2,0,0,1-2-2V112a2,2,0,0,1,2-2h14m0-2H116a4,4,0,0,0-4,4v79a4,4,0,0,0,4,4h14a4,4,0,0,0,4-4V112a4,4,0,0,0-4-4Z" style="fill:#7200ff"></path><path d="M104.67,82a2,2,0,0,1,2,2v79a2,2,0,0,1-2,2h-14a2,2,0,0,1-2-2V84a2,2,0,0,1,2-2h14m0-2h-14a4,4,0,0,0-4,4v79a4,4,0,0,0,4,4h14a4,4,0,0,0,4-4V84a4,4,0,0,0-4-4Z" style="fill:#7200ff"></path><path d="M155.33,82a2,2,0,0,1,2,2v79a2,2,0,0,1-2,2h-14a2,2,0,0,1-2-2V84a2,2,0,0,1,2-2h14m0-2h-14a4,4,0,0,0-4,4v79a4,4,0,0,0,4,4h14a4,4,0,0,0,4-4V84a4,4,0,0,0-4-4Z" style="fill:#7200ff"></path><path d="M79.33,57a2,2,0,0,1,2,2v79a2,2,0,0,1-2,2h-14a2,2,0,0,1-2-2V59a2,2,0,0,1,2-2h14m0-2h-14a4,4,0,0,0-4,4v79a4,4,0,0,0,4,4h14a4,4,0,0,0,4-4V59a4,4,0,0,0-4-4Z" style="fill:#7200ff"></path><path d="M180.67,57a2,2,0,0,1,2,2v79a2,2,0,0,1-2,2h-14a2,2,0,0,1-2-2V59a2,2,0,0,1,2-2h14m0-2h-14a4,4,0,0,0-4,4v79a4,4,0,0,0,4,4h14a4,4,0,0,0,4-4V59a4,4,0,0,0-4-4Z" style="fill:#7200ff"></path><path d="M206,72a2,2,0,0,1,2,2v39a2,2,0,0,1-2,2H192a2,2,0,0,1-2-2V74a2,2,0,0,1,2-2h14m0-2H192a4,4,0,0,0-4,4v39a4,4,0,0,0,4,4h14a4,4,0,0,0,4-4V74a4,4,0,0,0-4-4Z" style="fill:#7200ff"></path><path d="M54,72a2,2,0,0,1,2,2v39a2,2,0,0,1-2,2H40a2,2,0,0,1-2-2V74a2,2,0,0,1,2-2H54m0-2H40a4,4,0,0,0-4,4v39a4,4,0,0,0,4,4H54a4,4,0,0,0,4-4V74a4,4,0,0,0-4-4Z" style="fill:#7200ff"></path></g><g style="opacity:0.05"><path d="M130,110a2,2,0,0,1,2,2v79a2,2,0,0,1-2,2H116a2,2,0,0,1-2-2V112a2,2,0,0,1,2-2h14m0-3H116a5,5,0,0,0-5,5v79a5,5,0,0,0,5,5h14a5,5,0,0,0,5-5V112a5,5,0,0,0-5-5Z" style="fill:#7200ff"></path><path d="M104.67,82a2,2,0,0,1,2,2v79a2,2,0,0,1-2,2h-14a2,2,0,0,1-2-2V84a2,2,0,0,1,2-2h14m0-3h-14a5,5,0,0,0-5,5v79a5,5,0,0,0,5,5h14a5,5,0,0,0,5-5V84a5,5,0,0,0-5-5Z" style="fill:#7200ff"></path><path d="M155.33,82a2,2,0,0,1,2,2v79a2,2,0,0,1-2,2h-14a2,2,0,0,1-2-2V84a2,2,0,0,1,2-2h14m0-3h-14a5,5,0,0,0-5,5v79a5,5,0,0,0,5,5h14a5,5,0,0,0,5-5V84a5,5,0,0,0-5-5Z" style="fill:#7200ff"></path><path d="M79.33,57a2,2,0,0,1,2,2v79a2,2,0,0,1-2,2h-14a2,2,0,0,1-2-2V59a2,2,0,0,1,2-2h14m0-3h-14a5,5,0,0,0-5,5v79a5,5,0,0,0,5,5h14a5,5,0,0,0,5-5V59a5,5,0,0,0-5-5Z" style="fill:#7200ff"></path><path d="M180.67,57a2,2,0,0,1,2,2v79a2,2,0,0,1-2,2h-14a2,2,0,0,1-2-2V59a2,2,0,0,1,2-2h14m0-3h-14a5,5,0,0,0-5,5v79a5,5,0,0,0,5,5h14a5,5,0,0,0,5-5V59a5,5,0,0,0-5-5Z" style="fill:#7200ff"></path><path d="M206,72a2,2,0,0,1,2,2v39a2,2,0,0,1-2,2H192a2,2,0,0,1-2-2V74a2,2,0,0,1,2-2h14m0-3H192a5,5,0,0,0-5,5v39a5,5,0,0,0,5,5h14a5,5,0,0,0,5-5V74a5,5,0,0,0-5-5Z" style="fill:#7200ff"></path><path d="M54,72a2,2,0,0,1,2,2v39a2,2,0,0,1-2,2H40a2,2,0,0,1-2-2V74a2,2,0,0,1,2-2H54m0-3H40a5,5,0,0,0-5,5v39a5,5,0,0,0,5,5H54a5,5,0,0,0,5-5V74a5,5,0,0,0-5-5Z" style="fill:#7200ff"></path></g></svg>