<?xml version="1.0" encoding="UTF-8"?>
<!DOCTYPE svg PUBLIC "-//W3C//DTD SVG 1.1//EN" "http://www.w3.org/Graphics/SVG/1.1/DTD/svg11.dtd">
<svg xmlns="http://www.w3.org/2000/svg" version="1.1" width="270px" height="276px" style="shape-rendering:geometricPrecision; text-rendering:geometricPrecision; image-rendering:optimizeQuality; fill-rule:evenodd; clip-rule:evenodd" xmlns:xlink="http://www.w3.org/1999/xlink">
<g><path style="opacity:0" fill="#000000" d="M -0.5,-0.5 C 89.5,-0.5 179.5,-0.5 269.5,-0.5C 269.5,91.5 269.5,183.5 269.5,275.5C 179.5,275.5 89.5,275.5 -0.5,275.5C -0.5,183.5 -0.5,91.5 -0.5,-0.5 Z"/></g>
<g><path style="opacity:1" fill="white" d="M 120.5,21.5 C 174.565,18.771 215.065,40.771 242,87.5C 264.153,141.552 254.653,189.052 213.5,230C 171.486,262.377 126.153,267.377 77.5,245C 28.5948,214.714 8.76147,170.881 18,113.5C 28.9198,74.5822 52.7531,46.7489 89.5,30C 99.7417,26.066 110.075,23.2327 120.5,21.5 Z"/></g>
<g><path style="opacity:1" fill="#020202" d="M 121.5,26.5 C 180.5,24.0465 221.334,49.7131 244,103.5C 255.063,141.449 249.396,176.449 227,208.5C 194.041,247.891 152.207,261.724 101.5,250C 57.212,234.72 30.3786,204.22 21,158.5C 15.4647,105.738 35.298,65.9044 80.5,39C 93.7088,33.0469 107.375,28.8802 121.5,26.5 Z"/></g>
<g><path style="opacity:1" fill="white" d="M 111.5,99.5 C 111.829,93.4632 111.496,87.4632 110.5,81.5C 109.893,81.6236 109.56,81.9569 109.5,82.5C 108.027,83.7401 106.36,84.7401 104.5,85.5C 102.717,84.6518 102.217,83.3185 103,81.5C 106.675,77.9214 110.842,75.2547 115.5,73.5C 115.666,82.5062 115.5,91.5062 115,100.5C 113.244,101.985 112.077,101.652 111.5,99.5 Z"/></g>
<g><path style="opacity:1" fill="white" d="M 157.5,99.5 C 157.829,93.7945 157.495,88.1278 156.5,82.5C 155.893,82.6236 155.56,82.9569 155.5,83.5C 153.742,83.8769 152.075,84.5435 150.5,85.5C 148.717,84.6518 148.217,83.3185 149,81.5C 152.454,79.381 155.621,76.881 158.5,74C 159.784,73.3162 160.951,73.4829 162,74.5C 162.832,83.1858 162.665,91.8525 161.5,100.5C 159.512,102.147 158.179,101.814 157.5,99.5 Z"/></g>
<g><path style="opacity:1" fill="#292929" d="M 141.5,74.5 C 141.929,80.2689 142.929,85.9356 144.5,91.5C 143.5,91.5 142.5,91.5 141.5,91.5C 141.5,85.8333 141.5,80.1667 141.5,74.5 Z"/></g>
<g><path style="opacity:1" fill="white" d="M 141.5,74.5 C 141.5,80.1667 141.5,85.8333 141.5,91.5C 142.5,91.5 143.5,91.5 144.5,91.5C 145.954,94.3999 144.954,95.7332 141.5,95.5C 141.66,97.1992 141.494,98.8659 141,100.5C 139.667,101.833 138.333,101.833 137,100.5C 136.506,98.8659 136.34,97.1992 136.5,95.5C 132.818,95.6653 129.152,95.4986 125.5,95C 124.572,94.6121 123.905,93.9454 123.5,93C 127.684,85.76 132.684,79.26 138.5,73.5C 139.584,73.685 140.584,74.0183 141.5,74.5 Z"/></g>
<g><path style="opacity:1" fill="#0a0a0a" d="M 136.5,90.5 C 134.265,90.7947 132.265,90.4614 130.5,89.5C 132.087,86.7318 133.92,84.0652 136,81.5C 136.498,84.4816 136.665,87.4816 136.5,90.5 Z"/></g>
<g><path style="opacity:1" fill="white" d="M 109.5,82.5 C 109.56,81.9569 109.893,81.6236 110.5,81.5C 111.496,87.4632 111.829,93.4632 111.5,99.5C 110.833,93.8333 110.167,88.1667 109.5,82.5 Z"/></g>
<g><path style="opacity:1" fill="#323232" d="M 130.5,89.5 C 132.265,90.4614 134.265,90.7947 136.5,90.5C 134.307,91.7969 131.973,91.7969 129.5,90.5C 129.624,89.8933 129.957,89.56 130.5,89.5 Z"/></g>
<g><path style="opacity:1" fill="white" d="M 161.5,113.5 C 166.179,113.334 170.845,113.501 175.5,114C 176.337,115.011 176.67,116.178 176.5,117.5C 174.5,117.5 172.5,117.5 170.5,117.5C 170.5,122.833 170.5,128.167 170.5,133.5C 169.178,133.67 168.011,133.337 167,132.5C 166.501,127.511 166.334,122.511 166.5,117.5C 164.5,117.5 162.5,117.5 160.5,117.5C 160.433,116.041 160.766,114.708 161.5,113.5 Z"/></g>
<g><path style="opacity:1" fill="white" d="M 66.5,114.5 C 67.5,114.5 68.5,114.5 69.5,114.5C 69.5,120.833 69.5,127.167 69.5,133.5C 67.8762,133.64 66.7096,132.973 66,131.5C 65.2153,125.751 65.3819,120.084 66.5,114.5 Z"/></g>
<g><path style="opacity:1" fill="white" d="M 196.5,113.5 C 208.27,111.77 213.103,116.77 211,128.5C 209.954,130.09 208.787,131.59 207.5,133C 203.514,133.499 199.514,133.666 195.5,133.5C 195.207,126.745 195.54,120.078 196.5,113.5 Z"/></g>
<g><path style="opacity:1" fill="#000000" d="M 199.5,117.5 C 205.027,116.196 207.693,118.362 207.5,124C 207.167,128.932 204.5,130.765 199.5,129.5C 199.5,125.5 199.5,121.5 199.5,117.5 Z"/></g>
<g><path style="opacity:1" fill="white" d="M 127.5,113.5 C 131.514,113.334 135.514,113.501 139.5,114C 140.337,115.011 140.67,116.178 140.5,117.5C 137.167,117.5 133.833,117.5 130.5,117.5C 130.5,119.167 130.5,120.833 130.5,122.5C 133.5,122.5 136.5,122.5 139.5,122.5C 139.5,123.5 139.5,124.5 139.5,125.5C 136.5,125.5 133.5,125.5 130.5,125.5C 130.5,126.833 130.5,128.167 130.5,129.5C 133.518,129.335 136.518,129.502 139.5,130C 140.167,130.667 140.833,131.333 141.5,132C 139.2,133.109 136.7,133.609 134,133.5C 131.576,133.47 129.243,133.137 127,132.5C 126.249,126.116 126.416,119.783 127.5,113.5 Z"/></g>
<g><path style="opacity:1" fill="#757575" d="M 78.5,123.5 C 78.44,122.957 78.1067,122.624 77.5,122.5C 76.513,125.768 76.1796,129.102 76.5,132.5C 75.6868,133.653 74.6868,133.653 73.5,132.5C 72.1667,126.833 72.1667,121.167 73.5,115.5C 75.3983,114.266 77.065,114.599 78.5,116.5C 80.8635,119.699 83.0302,123.032 85,126.5C 85.3333,122.833 85.6667,119.167 86,115.5C 87,114.167 88,114.167 89,115.5C 89.6667,121.167 89.6667,126.833 89,132.5C 87.9505,133.517 86.7839,133.684 85.5,133C 83.0354,129.893 80.7021,126.726 78.5,123.5 Z"/></g>
<g><path style="opacity:1" fill="#757575" d="M 111.5,113.5 C 118.012,111.815 122.345,113.982 124.5,120C 123.137,125.692 119.471,127.859 113.5,126.5C 113.662,128.527 113.495,130.527 113,132.5C 112,133.833 111,133.833 110,132.5C 109.333,126.833 109.333,121.167 110,115.5C 110.717,114.956 111.217,114.289 111.5,113.5 Z"/></g>
<g><path style="opacity:1" fill="#101010" d="M 113.5,117.5 C 116.596,116.907 118.929,117.907 120.5,120.5C 118.929,123.093 116.596,124.093 113.5,123.5C 113.5,121.5 113.5,119.5 113.5,117.5 Z"/></g>
<g><path style="opacity:1" fill="#747474" d="M 97.5,113.5 C 101.009,113.371 103.842,114.704 106,117.5C 106.333,119.934 105.166,120.934 102.5,120.5C 102.5,119.5 102.5,118.5 102.5,117.5C 100.5,117.5 98.5,117.5 96.5,117.5C 96.281,118.675 96.6143,119.675 97.5,120.5C 100.806,121.545 103.973,122.878 107,124.5C 108.061,130.108 105.728,133.108 100,133.5C 95.4115,133.752 93.0782,131.752 93,127.5C 94.5445,126.179 95.7112,126.512 96.5,128.5C 98.396,129.466 100.396,129.799 102.5,129.5C 102.67,128.178 102.337,127.011 101.5,126C 98.1283,125.438 95.2949,123.938 93,121.5C 92.3486,119.765 92.5153,118.098 93.5,116.5C 95.1836,115.85 96.5169,114.85 97.5,113.5 Z"/></g>
<g><path style="opacity:1" fill="#737373" d="M 149.5,113.5 C 152.564,113.144 155.231,113.977 157.5,116C 159.155,117.444 159.822,119.278 159.5,121.5C 157.176,121.338 155.509,120.172 154.5,118C 149.473,116.687 147.14,118.687 147.5,124C 147.912,129.257 150.579,130.757 155.5,128.5C 156.719,125.499 158.052,125.166 159.5,127.5C 156.949,133.579 152.616,135.079 146.5,132C 141.886,124.786 142.886,118.619 149.5,113.5 Z"/></g>
<g><path style="opacity:1" fill="#717171" d="M 179.5,113.5 C 183.5,113.5 187.5,113.5 191.5,113.5C 191.5,114.833 191.5,116.167 191.5,117.5C 188.167,117.5 184.833,117.5 181.5,117.5C 181.5,119.167 181.5,120.833 181.5,122.5C 184.898,122.18 188.232,122.513 191.5,123.5C 191.291,124.086 190.957,124.586 190.5,125C 187.518,125.498 184.518,125.665 181.5,125.5C 181.5,126.833 181.5,128.167 181.5,129.5C 184.85,129.335 188.183,129.502 191.5,130C 192.833,131 192.833,132 191.5,133C 187.5,133.667 183.5,133.667 179.5,133C 179,132.5 178.5,132 178,131.5C 177.333,126.167 177.333,120.833 178,115.5C 178.717,114.956 179.217,114.289 179.5,113.5 Z"/></g>
<g><path style="opacity:1" fill="#404040" d="M 78.5,123.5 C 77.8333,126.5 77.1667,129.5 76.5,132.5C 76.1796,129.102 76.513,125.768 77.5,122.5C 78.1067,122.624 78.44,122.957 78.5,123.5 Z"/></g>
<g><path style="opacity:1" fill="#797979" d="M 97.5,142.5 C 102.849,141.461 107.349,142.795 111,146.5C 110.991,153.289 107.491,155.956 100.5,154.5C 100.662,156.527 100.495,158.527 100,160.5C 99,161.833 98,161.833 97,160.5C 96.2124,154.418 96.379,148.418 97.5,142.5 Z"/></g>
<g><path style="opacity:1" fill="#787878" d="M 179.5,145.5 C 176.167,145.5 172.833,145.5 169.5,145.5C 169.216,147.415 169.549,149.081 170.5,150.5C 173.187,150.336 175.854,150.503 178.5,151C 179.774,151.977 179.774,152.811 178.5,153.5C 175.5,153.5 172.5,153.5 169.5,153.5C 169.216,155.415 169.549,157.081 170.5,158.5C 173.5,158.5 176.5,158.5 179.5,158.5C 179.5,159.5 179.5,160.5 179.5,161.5C 175.154,161.666 170.821,161.499 166.5,161C 165.361,155.584 165.194,150.084 166,144.5C 166.5,144 167,143.5 167.5,143C 171.486,142.501 175.486,142.334 179.5,142.5C 179.5,143.5 179.5,144.5 179.5,145.5 Z"/></g>
<g><path style="opacity:1" fill="white" d="M 208.5,142.5 C 212.182,142.335 215.848,142.501 219.5,143C 221.729,145.553 222.062,148.386 220.5,151.5C 225.043,158.522 222.876,161.855 214,161.5C 211.906,161.464 209.906,161.131 208,160.5C 207.212,154.418 207.379,148.418 208.5,142.5 Z"/></g>
<g><path style="opacity:1" fill="#343434" d="M 179.5,145.5 C 176.713,146.477 173.713,146.81 170.5,146.5C 170.5,147.833 170.5,149.167 170.5,150.5C 169.549,149.081 169.216,147.415 169.5,145.5C 172.833,145.5 176.167,145.5 179.5,145.5 Z"/></g>
<g><path style="opacity:1" fill="#141414" d="M 100.5,145.5 C 105.667,144.492 107.334,146.325 105.5,151C 103.866,151.494 102.199,151.66 100.5,151.5C 100.5,149.5 100.5,147.5 100.5,145.5 Z"/></g>
<g><path style="opacity:1" fill="#050505" d="M 211.5,146.5 C 213.833,146.5 216.167,146.5 218.5,146.5C 218.67,147.822 218.337,148.989 217.5,150C 215.527,150.495 213.527,150.662 211.5,150.5C 211.5,149.167 211.5,147.833 211.5,146.5 Z"/></g>
<g><path style="opacity:1" fill="#787878" d="M 225.5,142.5 C 226.552,142.351 227.552,142.517 228.5,143C 229.627,144.753 230.627,146.587 231.5,148.5C 232.325,149.386 233.325,149.719 234.5,149.5C 234.542,146.415 235.875,144.081 238.5,142.5C 239.631,144.074 239.798,145.741 239,147.5C 235.181,150.935 233.515,155.269 234,160.5C 233.282,161.451 232.449,161.617 231.5,161C 230.718,158.26 230.218,155.426 230,152.5C 229.368,150.469 228.201,148.802 226.5,147.5C 225.548,145.955 225.215,144.288 225.5,142.5 Z"/></g>
<g><path style="opacity:1" fill="#767676" d="M 119.5,142.5 C 122.168,143.099 124.002,144.766 125,147.5C 126.598,151.461 128.098,155.461 129.5,159.5C 127.28,162.088 125.613,161.588 124.5,158C 122.167,157.333 119.833,157.333 117.5,158C 116.792,160.768 115.292,161.601 113,160.5C 112.516,158.087 112.85,155.754 114,153.5C 116.281,149.995 118.114,146.328 119.5,142.5 Z"/></g>
<g><path style="opacity:1" fill="#757575" d="M 142.5,160.5 C 140.283,161.369 137.95,161.702 135.5,161.5C 133.77,160.621 132.437,159.288 131.5,157.5C 131.608,156.558 131.941,155.725 132.5,155C 134.55,156.087 136.717,157.253 139,158.5C 142.822,158.031 143.322,156.531 140.5,154C 134.845,153.789 132.011,150.956 132,145.5C 137.141,141.166 141.641,141.666 145.5,147C 144.462,150.026 143.128,150.193 141.5,147.5C 139.604,146.534 137.604,146.201 135.5,146.5C 135.5,147.5 135.5,148.5 135.5,149.5C 142.718,148.566 146.218,151.566 146,158.5C 145.184,159.823 144.017,160.489 142.5,160.5 Z"/></g>
<g><path style="opacity:1" fill="#171717" d="M 120.5,146.5 C 121.67,148.65 122.67,150.984 123.5,153.5C 122.311,154.429 120.978,154.762 119.5,154.5C 119.401,151.763 119.735,149.096 120.5,146.5 Z"/></g>
<g><path style="opacity:1" fill="#757575" d="M 39.5,142.5 C 40.675,142.281 41.675,142.614 42.5,143.5C 44.8333,148.833 47.1667,154.167 49.5,159.5C 47.5434,162.059 45.8767,161.726 44.5,158.5C 41.9135,157.52 39.2469,157.187 36.5,157.5C 36.8333,160.5 35.5,161.833 32.5,161.5C 33.4242,154.651 35.7575,148.318 39.5,142.5 Z"/></g>
<g><path style="opacity:1" fill="#0e0e0e" d="M 39.5,148.5 C 40.4959,148.414 41.3292,148.748 42,149.5C 42.4935,151.134 42.6602,152.801 42.5,154.5C 41.5,154.5 40.5,154.5 39.5,154.5C 39.5,152.5 39.5,150.5 39.5,148.5 Z"/></g>
<g><path style="opacity:1" fill="#787878" d="M 152.5,142.5 C 157.022,141.62 160.355,143.12 162.5,147C 162.387,148.28 161.72,149.113 160.5,149.5C 159.238,147.619 157.571,146.286 155.5,145.5C 153.085,145.719 152.085,147.052 152.5,149.5C 159.737,148.586 163.237,151.586 163,158.5C 158.924,162.034 154.591,162.367 150,159.5C 149.346,153.641 150.512,153.141 153.5,158C 155.956,158.946 157.956,158.446 159.5,156.5C 159.023,155.522 158.357,154.689 157.5,154C 150.849,154.219 148.349,151.053 150,144.5C 150.995,143.934 151.828,143.267 152.5,142.5 Z"/></g>
<g><path style="opacity:1" fill="#7a7a7a" d="M 183.5,142.5 C 187.182,142.335 190.848,142.501 194.5,143C 200.299,147.942 200.966,153.609 196.5,160C 192.036,161.74 187.536,161.907 183,160.5C 182.212,154.418 182.379,148.418 183.5,142.5 Z"/></g>
<g><path style="opacity:1" fill="#0b0b0b" d="M 186.5,145.5 C 192.094,144.422 195.094,146.755 195.5,152.5C 194.653,157.674 191.653,159.674 186.5,158.5C 186.5,154.167 186.5,149.833 186.5,145.5 Z"/></g>
<g><path style="opacity:1" fill="#353535" d="M 178.5,153.5 C 176.052,154.473 173.385,154.806 170.5,154.5C 170.5,155.833 170.5,157.167 170.5,158.5C 169.549,157.081 169.216,155.415 169.5,153.5C 172.5,153.5 175.5,153.5 178.5,153.5 Z"/></g>
<g><path style="opacity:1" fill="#090909" d="M 211.5,154.5 C 214.167,154.5 216.833,154.5 219.5,154.5C 219.719,155.675 219.386,156.675 218.5,157.5C 216.253,158.374 213.92,158.708 211.5,158.5C 211.5,157.167 211.5,155.833 211.5,154.5 Z"/></g>
<g><path style="opacity:1" fill="#777777" d="M 52.5,142.5 C 54.6607,142.826 56.4941,143.826 58,145.5C 59.6349,148.632 61.4682,151.632 63.5,154.5C 64.3253,150.878 64.8253,147.211 65,143.5C 65.7412,142.359 66.5745,142.359 67.5,143.5C 68.8074,149.388 68.8074,155.221 67.5,161C 65.5355,161.624 63.8689,161.124 62.5,159.5C 60.527,156.36 58.3603,153.36 56,150.5C 55.6667,153.833 55.3333,157.167 55,160.5C 54,161.833 53,161.833 52,160.5C 51.2124,154.418 51.379,148.418 52.5,142.5 Z"/></g>
<g><path style="opacity:1" fill="white" d="M 72.5,142.5 C 87.3569,141.349 91.3569,147.349 84.5,160.5C 79.9692,161.811 75.4692,161.811 71,160.5C 70.3333,155.167 70.3333,149.833 71,144.5C 71.7172,143.956 72.2172,143.289 72.5,142.5 Z"/></g>
<g><path style="opacity:1" fill="#080808" d="M 75.5,145.5 C 80.4336,144.937 83.1003,147.104 83.5,152C 83.6933,157.638 81.0266,159.804 75.5,158.5C 75.5,154.167 75.5,149.833 75.5,145.5 Z"/></g>
<g><path style="opacity:1" fill="#2d2d2d" d="M 142.5,160.5 C 141.848,161.725 140.681,162.392 139,162.5C 137.615,162.486 136.449,162.152 135.5,161.5C 137.95,161.702 140.283,161.369 142.5,160.5 Z"/></g>
<g><path style="opacity:1" fill="#787878" d="M 174.5,174.5 C 175.675,174.281 176.675,174.614 177.5,175.5C 178.083,177.002 178.916,178.335 180,179.5C 183.307,185.803 186.141,192.303 188.5,199C 187.788,200.442 186.621,201.275 185,201.5C 183.056,200.312 181.556,198.646 180.5,196.5C 177.232,195.513 173.898,195.18 170.5,195.5C 170.182,199.323 168.182,201.157 164.5,201C 163.941,200.275 163.608,199.442 163.5,198.5C 166.131,189.913 169.797,181.913 174.5,174.5 Z"/></g>
<g><path style="opacity:1" fill="#787878" d="M 87.5,175.5 C 93.6811,174.881 99.5145,175.881 105,178.5C 105.891,181.934 105.391,185.101 103.5,188C 104.832,190.331 106.166,192.665 107.5,195C 107.357,197.151 106.357,198.818 104.5,200C 99.0674,202.347 93.4007,203.013 87.5,202C 87,201.5 86.5,201 86,200.5C 85.3333,192.833 85.3333,185.167 86,177.5C 86.7172,176.956 87.2172,176.289 87.5,175.5 Z"/></g>
<g><path style="opacity:1" fill="#050505" d="M 90.5,180.5 C 93.8333,180.5 97.1667,180.5 100.5,180.5C 100.785,182.288 100.452,183.955 99.5,185.5C 96.5788,186.407 93.5788,186.74 90.5,186.5C 90.5,184.5 90.5,182.5 90.5,180.5 Z"/></g>
<g><path style="opacity:1" fill="#111111" d="M 174.5,180.5 C 176.968,183.553 178.301,187.22 178.5,191.5C 176.833,191.5 175.167,191.5 173.5,191.5C 174.114,187.865 174.448,184.198 174.5,180.5 Z"/></g>
<g><path style="opacity:1" fill="#787878" d="M 119.5,175.5 C 121.722,175.178 123.556,175.845 125,177.5C 128.181,184.675 131.348,191.841 134.5,199C 134.046,200.622 133.046,201.788 131.5,202.5C 129.493,200.992 127.826,199.158 126.5,197C 123.183,196.502 119.85,196.335 116.5,196.5C 116.382,199.25 115.049,201.25 112.5,202.5C 110.954,201.788 109.954,200.622 109.5,199C 112.35,190.948 115.683,183.114 119.5,175.5 Z"/></g>
<g><path style="opacity:1" fill="#131313" d="M 120.5,181.5 C 121.497,181.47 122.164,181.97 122.5,183C 123.566,186.094 124.232,189.26 124.5,192.5C 122.833,192.5 121.167,192.5 119.5,192.5C 120.114,188.865 120.448,185.198 120.5,181.5 Z"/></g>
<g><path style="opacity:1" fill="#767676" d="M 138.5,175.5 C 140.722,175.178 142.556,175.845 144,177.5C 146.932,182.766 150.266,187.766 154,192.5C 154.333,187.5 154.667,182.5 155,177.5C 156.667,174.833 158.333,174.833 160,177.5C 160.667,185.167 160.667,192.833 160,200.5C 158.534,202.325 156.701,202.825 154.5,202C 150.491,197.009 146.658,191.843 143,186.5C 142.667,191.5 142.333,196.5 142,201.5C 140.542,202.747 139.042,202.747 137.5,201.5C 136.335,193.521 136.168,185.521 137,177.5C 137.717,176.956 138.217,176.289 138.5,175.5 Z"/></g>
<g><path style="opacity:1" fill="#020202" d="M 90.5,191.5 C 94.2148,191.423 97.8815,191.756 101.5,192.5C 101.773,194.451 101.107,195.951 99.5,197C 96.5184,197.498 93.5184,197.665 90.5,197.5C 90.5,195.5 90.5,193.5 90.5,191.5 Z"/></g>
</svg>
