<svg id="svg" version="1.1" xmlns="http://www.w3.org/2000/svg" xmlns:xlink="http://www.w3.org/1999/xlink" width="400" height="351.62509448223733" viewBox="0, 0, 400,351.62509448223733"><g id="svgg"><path id="path0" d="M182.033 33.575 C 172.150 50.873,163.288 66.347,162.337 67.962 C 161.387 69.578,143.330 101.104,122.211 138.020 C 101.092 174.936,65.278 237.520,42.625 277.095 C 19.971 316.670,1.371 349.221,1.291 349.430 C 1.173 349.736,40.311 349.811,200.119 349.811 C 309.555 349.811,399.093 349.747,399.093 349.668 C 399.093 349.520,241.018 73.151,237.965 67.962 C 237.015 66.347,228.152 50.873,218.270 33.575 C 208.388 16.278,200.234 2.125,200.151 2.125 C 200.068 2.125,191.915 16.278,182.033 33.575 M218.091 44.115 L 235.880 75.217 218.125 106.241 C 208.360 123.303,200.271 137.264,200.151 137.264 C 200.031 137.264,191.943 123.303,182.177 106.241 L 164.422 75.217 182.211 44.115 C 191.995 27.008,200.068 13.012,200.151 13.012 C 200.234 13.012,208.307 27.008,218.091 44.115 M179.449 112.302 C 189.236 129.420,197.251 143.638,197.261 143.897 C 197.281 144.437,123.969 272.714,123.640 272.714 C 123.522 272.714,115.317 258.554,105.407 241.248 L 87.388 209.783 124.321 145.246 C 144.634 109.751,161.344 80.815,161.454 80.944 C 161.565 81.073,169.663 95.185,179.449 112.302 M275.864 145.198 C 295.915 180.242,312.320 209.069,312.320 209.257 C 312.320 209.607,276.906 271.576,276.788 271.432 C 275.798 270.224,203.486 143.119,203.608 142.801 C 203.747 142.438,233.194 90.838,237.713 83.039 C 238.373 81.900,239.024 81.084,239.160 81.225 C 239.296 81.366,255.813 110.154,275.864 145.198 M236.905 212.705 C 256.766 247.414,273.016 275.978,273.016 276.181 C 273.016 276.384,264.330 291.775,253.713 310.384 L 234.410 344.218 199.247 344.218 L 164.084 344.218 145.375 311.350 L 126.666 278.483 163.609 213.919 C 183.928 178.409,200.607 149.410,200.674 149.477 C 200.740 149.544,217.045 177.996,236.905 212.705 M101.830 245.893 C 111.359 262.556,119.444 276.695,119.796 277.311 L 120.436 278.432 101.568 311.400 L 82.700 344.369 46.614 344.369 L 10.527 344.369 11.537 342.580 C 18.845 329.643,84.243 215.594,84.354 215.594 C 84.437 215.595,92.301 229.229,101.830 245.893 M352.346 279.777 C 372.569 315.091,389.116 344.071,389.116 344.178 C 389.116 344.284,373.177 344.337,353.696 344.295 L 318.277 344.218 299.401 311.262 C 289.019 293.137,280.387 278.020,280.219 277.670 C 279.918 277.045,314.689 215.571,315.343 215.571 C 315.471 215.571,332.122 244.464,352.346 279.777 M293.996 313.004 C 303.742 330.092,311.716 344.140,311.716 344.221 C 311.716 344.302,295.718 344.369,276.165 344.369 C 254.080 344.369,240.653 344.261,240.716 344.084 C 240.870 343.648,276.169 281.812,276.227 281.878 C 276.254 281.909,284.250 295.916,293.996 313.004 M141.146 314.639 C 150.152 330.464,157.603 343.627,157.704 343.891 C 157.871 344.325,154.792 344.369,124.144 344.369 C 105.585 344.369,90.401 344.274,90.401 344.158 C 90.401 343.170,124.111 284.889,124.419 285.344 C 124.613 285.631,132.140 298.813,141.146 314.639 " stroke="none" fill="#1a2032" fill-rule="evenodd"></path><path id="path1" d="M182.211 44.115 L 164.422 75.217 182.177 106.241 C 191.943 123.303,200.031 137.264,200.151 137.264 C 200.271 137.264,208.360 123.303,218.125 106.241 L 235.880 75.217 218.091 44.115 C 208.307 27.008,200.234 13.012,200.151 13.012 C 200.068 13.012,191.995 27.008,182.211 44.115 M237.713 83.039 C 233.194 90.838,203.747 142.438,203.608 142.801 C 203.486 143.119,275.798 270.224,276.788 271.432 C 276.906 271.576,312.320 209.607,312.320 209.257 C 312.320 208.918,239.636 81.719,239.160 81.225 C 239.024 81.084,238.373 81.900,237.713 83.039 " stroke="none" fill="#cb232b" fill-rule="evenodd"></path><path id="path2" d="M124.438 145.280 C 104.201 180.640,87.686 209.746,87.738 209.959 C 88.076 211.367,123.548 272.621,123.845 272.310 C 124.031 272.116,140.655 243.153,160.788 207.946 L 197.392 143.935 179.536 112.708 C 169.715 95.533,161.579 81.371,161.456 81.235 C 161.332 81.100,144.674 109.920,124.438 145.280 M163.760 213.898 C 143.533 249.251,126.984 278.317,126.984 278.489 C 126.984 278.661,135.381 293.554,145.644 311.585 L 164.303 344.369 199.245 344.369 L 234.187 344.369 253.374 310.769 C 263.928 292.289,272.675 276.938,272.812 276.656 C 273.018 276.233,201.944 151.165,200.760 149.867 C 200.636 149.731,183.986 178.545,163.760 213.898 M297.657 246.277 C 288.012 263.153,280.159 277.107,280.206 277.285 C 280.253 277.463,288.889 292.630,299.398 310.989 L 318.504 344.369 353.837 344.369 L 389.171 344.369 388.161 342.576 C 381.887 331.440,315.456 215.592,315.344 215.592 C 315.261 215.592,307.302 229.401,297.657 246.277 M107.219 314.654 L 90.395 344.218 107.352 344.296 C 116.679 344.339,131.851 344.339,141.069 344.296 L 157.829 344.218 141.094 314.813 C 131.890 298.640,124.289 285.337,124.201 285.250 C 124.114 285.163,116.472 298.395,107.219 314.654 " stroke="none" fill="#f2eee3" fill-rule="evenodd"></path><path id="path3" d="M258.395 313.142 L 240.670 344.218 258.529 344.296 C 268.352 344.339,284.336 344.339,294.050 344.296 L 311.711 344.218 294.079 313.305 C 284.381 296.303,276.373 282.319,276.283 282.229 C 276.193 282.139,268.144 296.050,258.395 313.142 " stroke="none" fill="#f3cb3b" fill-rule="evenodd"></path><path id="path4" d="M48.375 278.193 C 28.670 312.622,12.093 341.597,11.537 342.580 L 10.527 344.369 46.614 344.369 L 82.700 344.369 101.568 311.400 L 120.436 278.432 119.796 277.311 C 95.155 234.194,84.474 215.595,84.354 215.594 C 84.271 215.594,68.080 243.764,48.375 278.193 " stroke="none" fill="#3e4f7d" fill-rule="evenodd"></path></g></svg>